# File created by Blade
# Date/Time:  Tue Apr 07 20:57:09 2015
# Frame Rate: 120.000 fps
#------------------------------------------------------
:FULLY-SPECIFIED
:DEGREES
357
root -25.846114 33.393330 8.488756 23.972544 -88.084174 -20.436753
Spine -4.105151 -5.183684 -0.150202
Head 21.794017 -3.646082 1.368036
LeftShoulder -16.225049 18.869211 43.626436
LeftArm 115.639248 -63.627375 -73.554205
LeftForeArm 18.498656 -0.000000 19.908005
LeftHand 12.440799 -0.000000 26.721547
LeftHandThumb1 -26.253704 0.000000 33.147579
RightShoulder -15.988219 35.582032 -58.236086
RightArm 54.387334 20.690815 34.378660
RightForeArm -23.099008 -0.000000 13.831414
RightHand 18.827528 -0.000000 -30.029001
RightHandThumb1 -24.326973 -0.000000 -32.862282
LeftUpLeg -10.853653 -12.765624 -1.013231
LeftLeg 21.167207 -0.000000 -0.000000
LeftFoot -15.666239 12.219260 -20.681663
LeftToeBase -5.558931 -0.000000 0.000000
RightUpLeg -4.421410 0.135838 3.768011
RightLeg 6.076779 -0.000000 -0.000000
RightFoot -8.778873 -5.610497 8.304173
RightToeBase -8.595241 -0.000000 0.000000
358
root -25.869852 33.393051 8.514064 25.135567 -88.047945 -21.420911
Spine -4.349911 -5.415916 0.019016
Head 21.723945 -3.447730 1.288909
LeftShoulder -16.246680 18.820625 43.611826
LeftArm 115.799504 -63.807958 -73.524082
LeftForeArm 18.872149 0.000000 19.803744
LeftHand 12.408441 -0.000000 26.689527
LeftHandThumb1 -26.253704 0.000000 33.147579
RightShoulder -16.003931 35.716085 -58.448211
RightArm 54.486880 20.791558 34.438747
RightForeArm -23.058751 -0.000000 13.778630
RightHand 18.873405 0.000000 -30.311266
RightHandThumb1 -24.326973 -0.000000 -32.862282
LeftUpLeg -10.538508 -12.672014 -0.967576
LeftLeg 20.366269 -0.000000 -0.000000
LeftFoot -15.235492 11.980117 -19.939326
LeftToeBase -6.392510 -0.000000 0.000000
RightUpLeg -4.424662 0.190772 3.759619
RightLeg 5.822875 -0.000000 -0.000000
RightFoot -8.853827 -5.879406 8.486722
RightToeBase -8.238722 -0.000000 0.000000
359
root -25.893802 33.393654 8.536861 26.199668 -87.956724 -22.321984
Spine -4.567000 -5.722968 0.191862
Head 21.640288 -3.220411 1.259549
LeftShoulder -16.257081 18.690247 43.609847
LeftArm 115.600713 -64.066529 -73.040191
LeftForeArm 19.164895 -0.000000 19.530650
LeftHand 12.278324 -0.000000 26.781172
LeftHandThumb1 -26.253704 0.000000 33.147579
RightShoulder -16.031347 35.818260 -58.602677
RightArm 54.638094 20.893908 34.464706
RightForeArm -23.004283 -0.000000 13.703169
RightHand 18.859944 0.000000 -30.232715
RightHandThumb1 -24.326973 -0.000000 -32.862282
LeftUpLeg -10.264140 -12.226958 -0.960926
LeftLeg 19.477773 -0.000000 -0.000000
LeftFoot -14.096018 11.675195 -18.208435
LeftToeBase -9.905619 -0.000000 0.000000
RightUpLeg -4.398444 0.300952 3.763135
RightLeg 5.567219 -0.000000 -0.000000
RightFoot -9.357846 -5.845145 9.430023
RightToeBase -6.780897 -0.000000 0.000000
360
root -25.920205 33.397116 8.563319 26.905605 -87.839014 -22.859681
Spine -4.794636 -6.030511 0.368354
Head 21.583165 -3.040252 1.232999
LeftShoulder -16.356847 18.650760 43.608759
LeftArm 115.813619 -64.140534 -73.011778
LeftForeArm 19.509603 0.000000 19.276959
LeftHand 12.218416 0.000000 26.825931
LeftHandThumb1 -26.253704 0.000000 33.147579
RightShoulder -16.059619 35.996867 -58.778976
RightArm 54.655790 20.937432 34.456050
RightForeArm -22.991077 0.000000 13.714772
RightHand 18.885318 0.000000 -30.431382
RightHandThumb1 -24.326973 -0.000000 -32.862282
LeftUpLeg -9.974115 -11.995237 -0.889325
LeftLeg 18.656002 -0.000000 -0.000000
LeftFoot -13.894094 11.193815 -18.134160
LeftToeBase -9.616149 -0.000000 0.000000
RightUpLeg -4.361945 0.447171 3.764670
RightLeg 5.293736 -0.000000 -0.000000
RightFoot -9.732227 -5.884019 10.081470
RightToeBase -5.583130 -0.000000 0.000000
